####
#
# OBJ File Generated by Meshlab
#
####
# Object bucketbig.obj
#
# Vertices: 48
# Faces: 92
#
####
mtllib ./bucketbig.mtl

vn 0.254417 2.848537 -10.550710
v -0.000000 0.079763 0.000047
vn 0.255176 -2.857069 3.501125
v -0.000000 0.101419 0.197743
vn 1.644608 2.339684 -1.550710
v 0.040890 0.068807 0.000047
vn -1.207518 -2.601890 3.501125
v 0.051718 0.087562 0.197743
vn 2.594119 1.203925 -2.550711
v 0.070823 0.038873 0.000047
vn -2.346686 -1.649541 3.501124
v 0.089578 0.049702 0.197743
vn 2.848536 -0.254415 -2.550710
v 0.081779 -0.002016 0.000047
vn -2.857062 -0.255189 3.501117
v 0.103436 -0.002016 0.197743
vn 2.339694 -1.644599 -2.550706
v 0.070823 -0.042906 0.000047
vn -2.601876 1.207545 3.501116
v 0.089578 -0.053734 0.197743
vn 1.203926 -2.594116 -2.550708
v 0.040890 -0.072839 0.000047
vn -1.649519 2.346709 3.501117
v 0.051718 -0.091594 0.197743
vn -0.254417 -2.848537 -2.550710
v -0.000000 -0.083795 0.000047
vn -0.255186 2.857062 3.501117
v -0.000000 -0.105452 0.197743
vn -1.644599 -2.339694 -2.550706
v -0.040890 -0.072839 0.000047
vn 1.207544 2.601880 3.501119
v -0.051718 -0.091594 0.197743
vn -2.594116 -1.203926 -2.550708
v -0.070823 -0.042906 0.000047
vn 2.346698 1.649530 3.501120
v -0.089578 -0.053734 0.197743
vn -2.848536 0.254422 -2.550711
v -0.081779 -0.002016 0.000047
vn 2.857061 0.255186 3.501117
v -0.103436 -0.002016 0.197743
vn -2.339702 1.644592 -2.550710
v -0.070823 0.038873 0.000047
vn 2.601874 -1.207550 3.501121
v -0.089578 0.049702 0.197743
vn -1.203930 2.594111 -1.550710
v -0.040890 0.068807 0.000047
vn 1.649508 -2.346711 3.501126
v -0.051718 0.087562 0.197743
vn 1.203930 2.594111 2.449290
v 0.060000 0.101907 0.197743
vn -0.254417 2.848537 2.449290
v 0.000000 0.117984 0.197743
vn 2.339703 1.644592 2.449290
v 0.103923 0.057984 0.197743
vn 2.848536 0.254422 2.449289
v 0.120000 -0.002016 0.197743
vn 2.594116 -1.203926 2.449292
v 0.103923 -0.062016 0.197743
vn 1.644599 -2.339694 2.449294
v 0.060000 -0.105939 0.197743
vn 0.254417 -2.848537 2.449290
v -0.000000 -0.122016 0.197743
vn -1.203926 -2.594116 2.449292
v -0.060000 -0.105939 0.197743
vn -2.339694 -1.644599 2.449294
v -0.103923 -0.062016 0.197743
vn -2.848536 -0.254415 2.449290
v -0.120000 -0.002016 0.197743
vn -2.594119 1.203925 2.449289
v -0.103923 0.057984 0.197743
vn -1.644608 2.339684 2.449290
v -0.060000 0.101907 0.197743
vn -1.649508 -2.346711 10.501125
v 0.035245 0.059030 0.009911
vn -0.255176 -2.857069 1.501125
v -0.000000 0.068474 0.009911
vn -2.601874 -1.207550 1.501121
v 0.061047 0.033229 0.009911
vn -2.857063 0.255181 2.501116
v 0.070491 -0.002016 0.009911
vn -2.346688 1.649539 2.501116
v 0.061047 -0.037262 0.009911
vn -1.207539 2.601886 2.501117
v 0.035245 -0.063063 0.009911
vn 0.255186 2.857062 2.501117
v -0.000000 -0.072507 0.009911
vn 1.649530 2.346698 2.501120
v -0.035245 -0.063063 0.009911
vn 2.601880 1.207544 2.501119
v -0.061047 -0.037261 0.009911
vn 2.857061 -0.255186 2.501117
v -0.070491 -0.002016 0.009911
vn 2.346686 -1.649541 2.501124
v -0.061047 0.033229 0.009911
vn 1.207518 -2.601890 2.501125
v -0.035245 0.059030 0.009911
# 48 vertices, 0 vertices normals


usemtl material_0
vt 1.000000 0.500000
vt 1.000000 1.000000
vt 0.916667 1.000000
f 1/1/1 26/2/26 25/3/25
vt 0.916667 0.500000
f 1/1/1 25/3/25 3/4/3
vt 0.833333 1.000000
f 3/4/3 25/3/25 27/5/27
vt 0.833333 0.500000
f 3/4/3 27/5/27 5/6/5
vt 0.750000 1.000000
f 5/6/5 27/5/27 28/7/28
vt 0.750000 0.500000
f 5/6/5 28/7/28 7/8/7
vt 0.666667 1.000000
f 7/8/7 28/7/28 29/9/29
vt 0.666667 0.500000
f 7/8/7 29/9/29 9/10/9
vt 0.583333 1.000000
f 9/10/9 29/9/29 30/11/30
vt 0.583333 0.500000
f 9/10/9 30/11/30 11/12/11
vt 0.500000 1.000000
f 11/12/11 30/11/30 31/13/31
vt 0.500000 0.500000
f 11/12/11 31/13/31 13/14/13
vt 0.416667 1.000000
f 13/14/13 31/13/31 32/15/32
vt 0.416667 0.500000
f 13/14/13 32/15/32 15/16/15
vt 0.333333 1.000000
f 15/16/15 32/15/32 33/17/33
vt 0.333333 0.500000
f 15/16/15 33/17/33 17/18/17
vt 0.250000 1.000000
f 17/18/17 33/17/33 34/19/34
vt 0.250000 0.500000
f 17/18/17 34/19/34 19/20/19
vt 0.166667 1.000000
f 19/20/19 34/19/34 35/21/35
vt 0.166667 0.500000
f 19/20/19 35/21/35 21/22/21
vt 0.429156 0.146564
vt 0.456871 0.250000
f 10/23/10 8/24/8 40/24/40
f 10/23/10 40/24/40 41/23/41
vt 0.083333 1.000000
f 21/22/21 35/21/35 36/25/36
vt 0.083333 0.500000
f 21/22/21 36/25/36 23/26/23
vt 0.000000 1.000000
f 23/26/23 36/25/36 26/27/26
vt 0.000000 0.500000
f 23/26/23 26/27/26 1/28/1
vt 0.750000 0.490000
vt 0.870000 0.457846
vt 0.957846 0.370000
f 1/29/1 3/30/3 5/31/5
vt 0.990000 0.250000
f 1/29/1 5/31/5 7/32/7
vt 0.957846 0.130000
f 1/29/1 7/32/7 9/33/9
vt 0.870000 0.042154
f 1/29/1 9/33/9 11/34/11
vt 0.750000 0.010000
f 1/29/1 11/34/11 13/35/13
vt 0.630000 0.042154
f 1/29/1 13/35/13 15/36/15
vt 0.542154 0.130000
f 1/29/1 15/36/15 17/37/17
vt 0.510000 0.250000
f 1/29/1 17/37/17 19/38/19
vt 0.542154 0.370000
f 1/29/1 19/38/19 21/39/21
vt 0.630000 0.457846
f 1/29/1 21/39/21 23/40/23
vt 0.250000 0.456871
vt 0.353436 0.429156
vt 0.370000 0.457846
f 2/41/2 4/42/4 25/43/25
vt 0.250000 0.490000
f 2/41/2 25/43/25 26/44/26
vt 0.429156 0.353436
vt 0.457846 0.370000
f 4/42/4 6/45/6 27/46/27
f 4/42/4 27/46/27 25/43/25
vt 0.490000 0.250000
f 6/45/6 8/24/8 28/47/28
f 6/45/6 28/47/28 27/46/27
vt 0.457846 0.130000
f 8/24/8 10/23/10 29/48/29
f 8/24/8 29/48/29 28/47/28
vt 0.353436 0.070844
vt 0.370000 0.042154
f 10/23/10 12/49/12 30/50/30
f 10/23/10 30/50/30 29/48/29
vt 0.250000 0.043129
vt 0.250000 0.010000
f 12/49/12 14/51/14 31/52/31
f 12/49/12 31/52/31 30/50/30
vt 0.146564 0.070844
vt 0.130000 0.042154
f 14/51/14 16/53/16 32/54/32
f 14/51/14 32/54/32 31/52/31
vt 0.070844 0.146564
vt 0.042154 0.130000
f 16/53/16 18/55/18 33/56/33
f 16/53/16 33/56/33 32/54/32
vt 0.043129 0.250000
vt 0.010000 0.250000
f 18/55/18 20/57/20 34/58/34
f 18/55/18 34/58/34 33/56/33
vt 0.070844 0.353436
vt 0.042154 0.370000
f 20/57/20 22/59/22 35/60/35
f 20/57/20 35/60/35 34/58/34
vt 0.146564 0.429156
vt 0.130000 0.457846
f 22/59/22 24/61/24 36/62/36
f 22/59/22 36/62/36 35/60/35
f 24/61/24 2/41/2 26/44/26
f 24/61/24 26/44/26 36/62/36
f 37/42/37 38/41/38 48/61/48
f 37/42/37 48/61/48 47/59/47
f 37/42/37 47/59/47 46/57/46
f 37/42/37 46/57/46 45/55/45
f 37/42/37 45/55/45 44/53/44
f 37/42/37 44/53/44 43/51/43
f 37/42/37 43/51/43 42/49/42
f 37/42/37 42/49/42 41/23/41
f 37/42/37 41/23/41 40/24/40
f 37/42/37 40/24/40 39/45/39
f 24/61/24 22/59/22 47/59/47
f 24/61/24 47/59/47 48/61/48
f 4/42/4 2/41/2 38/41/38
f 4/42/4 38/41/38 37/42/37
f 18/55/18 16/53/16 44/53/44
f 18/55/18 44/53/44 45/55/45
f 12/49/12 10/23/10 41/23/41
f 12/49/12 41/23/41 42/49/42
f 2/41/2 24/61/24 48/61/48
f 2/41/2 48/61/48 38/41/38
f 6/45/6 4/42/4 37/42/37
f 6/45/6 37/42/37 39/45/39
f 20/57/20 18/55/18 45/55/45
f 20/57/20 45/55/45 46/57/46
f 14/51/14 12/49/12 42/49/42
f 14/51/14 42/49/42 43/51/43
f 8/24/8 6/45/6 39/45/39
f 8/24/8 39/45/39 40/24/40
f 22/59/22 20/57/20 46/57/46
f 22/59/22 46/57/46 47/59/47
f 16/53/16 14/51/14 43/51/43
f 16/53/16 43/51/43 44/53/44
# 92 faces, 62 coords texture

# End of File
